<svg width="109" height="125" viewBox="0 0 109 125" fill="none" xmlns="http://www.w3.org/2000/svg">
<path fill-rule="evenodd" clip-rule="evenodd" d="M42.8984 12.6921C18.3807 17.9511 0 39.7467 0 65.8353C0 76.8694 3.28798 87.1355 8.93762 95.7074L14.3298 82.5266C12.1847 77.3891 11 71.7506 11 65.8353C11 47.8681 21.9301 32.4538 37.5038 25.8788L42.8984 12.6921ZM69.5359 25.2164L64.2884 12.3892C89.5614 17.0579 108.705 39.211 108.705 65.8353C108.705 77.4243 105.078 88.1661 98.8968 96.9876L93.6508 84.1641C96.2518 78.5969 97.7046 72.3858 97.7046 65.8353C97.7046 47.2344 85.9899 31.3697 69.5359 25.2164Z" fill="white"/>
<path fill-rule="evenodd" clip-rule="evenodd" d="M62.9999 77.9834L54.9999 52.9048L38.9999 96.5902L42.9999 124.905L62.9999 77.9834ZM55.9999 105.328L64.5554 123.905L69.9999 97.2509L65.3332 81.9048L55.9999 105.328Z" fill="white"/>
<path fill-rule="evenodd" clip-rule="evenodd" d="M59.5016 13.7328L54.3518 0L49.202 13.7328L48.9727 14.3443L55.1854 33.5508L85.3541 114.001C91.4519 114.989 96.0453 116.242 98.4535 117.604L59.5016 13.7328ZM52.7205 35.6783L47.2799 18.8585L10.2501 117.605C12.6581 116.242 17.2515 114.989 23.3495 114.001L52.7205 35.6783Z" fill="#FF5151"/>
</svg>
