<svg width="246" height="223" viewBox="0 0 246 223" fill="none" xmlns="http://www.w3.org/2000/svg">
<g clip-path="url(#clip0_517_2)">
<path fill-rule="evenodd" clip-rule="evenodd" d="M111.898 12.6921C87.3807 17.9511 69 39.7467 69 65.8353C69 76.8694 72.288 87.1355 77.9376 95.7074L83.3298 82.5266C81.1847 77.3891 80 71.7506 80 65.8353C80 47.8681 90.9301 32.4538 106.504 25.8788L111.898 12.6921ZM138.536 25.2164L133.288 12.3892C158.561 17.0579 177.705 39.211 177.705 65.8353C177.705 77.4243 174.078 88.1661 167.897 96.9876L162.651 84.1641C165.252 78.5969 166.705 72.3858 166.705 65.8353C166.705 47.2344 154.99 31.3697 138.536 25.2164Z" fill="white"/>
<path fill-rule="evenodd" clip-rule="evenodd" d="M132 77.9834L124 52.9048L108 96.5902L112 124.905L132 77.9834ZM125 105.328L133.555 123.905L139 97.2509L134.333 81.9048L125 105.328Z" fill="white"/>
<path fill-rule="evenodd" clip-rule="evenodd" d="M128.502 13.7328L123.352 0L118.202 13.7328L117.973 14.3443L124.185 33.5508L154.354 114.001C160.452 114.989 165.045 116.242 167.453 117.604L128.502 13.7328ZM121.72 35.6783L116.28 18.8585L79.2501 117.605C81.6581 116.242 86.2515 114.989 92.3495 114.001L121.72 35.6783Z" fill="#FF5151"/>
<path d="M51.8932 178L50.6599 174.3H38.6599L37.4266 178H27.8932L38.1932 150H51.1266L61.4266 178H51.8932ZM40.9266 167.467H48.3932L45.4599 158.667H43.8599L40.9266 167.467ZM86.012 175.733C83.612 177.867 79.9786 178.933 75.112 178.933C70.2453 178.933 66.612 177.867 64.212 175.733C61.812 173.6 60.612 170.289 60.612 165.8V150H69.912V165.567C69.912 169.322 71.6453 171.2 75.112 171.2C78.6231 171.2 80.3786 169.322 80.3786 165.567V150H89.612V165.733C89.612 170.244 88.412 173.578 86.012 175.733ZM121.04 178H111.973L108.173 170.767H101.173V178H91.9401V150H107.973C116.062 150 120.107 153.567 120.107 160.7C120.107 164.189 118.751 166.889 116.04 168.8L121.04 178ZM101.173 157.667V163.867H107.34C108.496 163.867 109.373 163.6 109.973 163.067C110.573 162.533 110.873 161.767 110.873 160.767C110.873 159.767 110.573 159 109.973 158.467C109.373 157.933 108.496 157.667 107.34 157.667H101.173ZM148.957 174.833C146.068 177.567 142.224 178.933 137.424 178.933C132.624 178.933 128.78 177.567 125.891 174.833C123.002 172.1 121.557 168.489 121.557 164C121.557 159.511 123.002 155.9 125.891 153.167C128.78 150.433 132.624 149.067 137.424 149.067C142.224 149.067 146.068 150.433 148.957 153.167C151.846 155.9 153.291 159.511 153.291 164C153.291 168.489 151.846 172.1 148.957 174.833ZM132.624 169.1C133.913 170.344 135.513 170.967 137.424 170.967C139.335 170.967 140.924 170.344 142.191 169.1C143.48 167.856 144.124 166.156 144.124 164C144.124 161.844 143.48 160.144 142.191 158.9C140.924 157.656 139.335 157.033 137.424 157.033C135.513 157.033 133.913 157.656 132.624 158.9C131.357 160.144 130.724 161.844 130.724 164C130.724 166.156 131.357 167.856 132.624 169.1ZM184.243 178H175.177L171.377 170.767H164.377V178H155.143V150H171.177C179.265 150 183.31 153.567 183.31 160.7C183.31 164.189 181.954 166.889 179.243 168.8L184.243 178ZM164.377 157.667V163.867H170.543C171.699 163.867 172.577 163.6 173.177 163.067C173.777 162.533 174.077 161.767 174.077 160.767C174.077 159.767 173.777 159 173.177 158.467C172.577 157.933 171.699 157.667 170.543 157.667H164.377ZM208.573 178L207.34 174.3H195.34L194.106 178H184.573L194.873 150H207.806L218.106 178H208.573ZM197.606 167.467H205.073L202.14 158.667H200.54L197.606 167.467Z" fill="white"/>
<path d="M30.2979 212H21.2313L17.4313 204.767H10.4313V212H1.19792V184H17.2313C25.3201 184 29.3646 187.567 29.3646 194.7C29.3646 198.189 28.009 200.889 25.2979 202.8L30.2979 212ZM10.4313 191.667V197.867H16.5979C17.7535 197.867 18.6313 197.6 19.2313 197.067C19.8313 196.533 20.1312 195.767 20.1312 194.767C20.1312 193.767 19.8313 193 19.2313 192.467C18.6313 191.933 17.7535 191.667 16.5979 191.667H10.4313ZM58.2151 208.833C55.3262 211.567 51.4818 212.933 46.6818 212.933C41.8818 212.933 38.0373 211.567 35.1484 208.833C32.2595 206.1 30.8151 202.489 30.8151 198C30.8151 193.511 32.2595 189.9 35.1484 187.167C38.0373 184.433 41.8818 183.067 46.6818 183.067C51.4818 183.067 55.3262 184.433 58.2151 187.167C61.104 189.9 62.5484 193.511 62.5484 198C62.5484 202.489 61.104 206.1 58.2151 208.833ZM41.8818 203.1C43.1707 204.344 44.7707 204.967 46.6818 204.967C48.5929 204.967 50.1818 204.344 51.4484 203.1C52.7373 201.856 53.3818 200.156 53.3818 198C53.3818 195.844 52.7373 194.144 51.4484 192.9C50.1818 191.656 48.5929 191.033 46.6818 191.033C44.7707 191.033 43.1707 191.656 41.8818 192.9C40.6151 194.144 39.9818 195.844 39.9818 198C39.9818 200.156 40.6151 201.856 41.8818 203.1ZM79.9859 212.933C75.2748 212.933 71.4748 211.567 68.5859 208.833C65.697 206.1 64.2526 202.489 64.2526 198C64.2526 193.511 65.697 189.9 68.5859 187.167C71.4748 184.433 75.2748 183.067 79.9859 183.067C81.4082 183.067 82.7637 183.2 84.0526 183.467C85.3415 183.711 86.6082 184.144 87.8526 184.767C89.097 185.367 90.1859 186.133 91.1193 187.067C92.0526 187.978 92.8415 189.167 93.4859 190.633C94.1526 192.078 94.5748 193.711 94.7526 195.533H85.9526C85.197 192.533 83.2082 191.033 79.9859 191.033C78.1193 191.033 76.5526 191.678 75.2859 192.967C74.0415 194.256 73.4193 195.933 73.4193 198C73.4193 200.067 74.0415 201.744 75.2859 203.033C76.5526 204.322 78.1193 204.967 79.9859 204.967C83.2082 204.967 85.197 203.444 85.9526 200.4H94.7526C94.5304 202.689 93.9637 204.678 93.0526 206.367C92.1415 208.033 90.9859 209.333 89.5859 210.267C88.1859 211.2 86.6859 211.878 85.0859 212.3C83.5082 212.722 81.8082 212.933 79.9859 212.933ZM127.122 212H117.689L110.222 202.033H109.622L105.789 206.133V212H96.5885V184H105.789V195.1H106.389L116.489 184H126.755L115.389 196.467L127.122 212ZM127.956 212V184H153.189V191.4H137.189V194.967H152.589V201.033H137.189V204.6H153.189V212H127.956ZM184.734 184V191.7H174.667V212H165.434V191.7H155.367V184H184.734ZM216.001 212H206.934L203.134 204.767H196.134V212H186.901V184H202.934C211.023 184 215.068 187.567 215.068 194.7C215.068 198.189 213.712 200.889 211.001 202.8L216.001 212ZM196.134 191.667V197.867H202.301C203.457 197.867 204.334 197.6 204.934 197.067C205.534 196.533 205.834 195.767 205.834 194.767C205.834 193.767 205.534 193 204.934 192.467C204.334 191.933 203.457 191.667 202.301 191.667H196.134ZM245.954 184L234.487 203.3V212H225.254V203.267L213.82 184H223.52L229.52 194.533H230.254L236.254 184H245.954Z" fill="#FF5151"/>
</g>
<defs>
<clipPath id="clip0_517_2">
<rect width="246" height="223" fill="white"/>
</clipPath>
</defs>
</svg>
